<?xml version="1.0" standalone="no"?>
<!DOCTYPE svg PUBLIC "-//W3C//DTD SVG 20010904//EN"
 "http://www.w3.org/TR/2001/REC-SVG-20010904/DTD/svg10.dtd">
<svg version="1.0" xmlns="http://www.w3.org/2000/svg"
 width="138.000000pt" height="165.000000pt" viewBox="0 0 138.000000 165.000000"
 preserveAspectRatio="xMidYMid meet">

<g transform="translate(0.000000,165.000000) scale(0.100000,-0.100000)"
fill="#000000" stroke="none">
<path d="M50 1600 c-20 -20 -20 -33 -20 -775 0 -742 0 -755 20 -775 20 -20 33
-20 640 -20 607 0 620 0 640 20 20 20 20 33 20 775 0 742 0 755 -20 775 -20
20 -33 20 -640 20 -607 0 -620 0 -640 -20z m217 -67 c3 -8 -8 -10 -37 -6 -51
7 -80 -15 -80 -63 0 -38 21 -54 69 -54 24 0 31 4 31 20 0 11 -7 20 -15 20 -8
0 -15 5 -15 11 0 6 12 9 28 7 24 -3 27 -7 27 -37 0 -30 -4 -36 -29 -42 -95
-26 -166 72 -101 137 21 21 33 25 72 22 25 -2 48 -8 50 -15z m119 9 c6 -4 14
-17 18 -28 9 -29 -17 -54 -55 -54 -27 0 -29 -3 -29 -35 0 -19 -4 -35 -10 -35
-6 0 -10 33 -10 80 l0 80 38 0 c20 0 42 -4 48 -8z m241 -9 c3 -8 -8 -10 -37
-6 -51 7 -80 -15 -80 -63 0 -41 27 -58 81 -51 46 6 56 -17 12 -26 -96 -19
-162 75 -98 139 21 21 33 25 72 22 25 -2 48 -8 50 -15z m168 -8 c56 -55 15
-140 -67 -140 -32 0 -45 6 -64 28 -51 60 -14 137 66 137 30 0 47 -6 65 -25z
m65 -45 l0 -70 40 0 c22 0 40 -4 40 -10 0 -5 -22 -10 -50 -10 l-50 0 0 80 c0
47 4 80 10 80 6 0 10 -30 10 -70z m225 45 c79 -78 -48 -192 -129 -116 -57 54
-17 141 64 141 30 0 47 -6 65 -25z m123 13 c15 -15 16 -50 2 -64 -7 -7 -2 -21
15 -44 35 -47 11 -52 -27 -6 -37 45 -48 45 -48 1 0 -24 -5 -35 -15 -35 -12 0
-15 16 -15 80 l0 80 38 0 c21 0 43 -5 50 -12z m-453 -213 c-5 -2 -70 -22 -143
-45 -172 -53 -349 -142 -431 -216 l-61 -56 0 90 0 89 83 72 82 71 240 -1 c132
0 236 -2 230 -4z m505 -109 l0 -114 -37 14 c-54 19 -229 17 -353 -5 -110 -19
-246 -56 -254 -69 -2 -4 41 -2 97 6 178 24 379 -4 406 -56 20 -38 -13 -75
-106 -121 -65 -32 -240 -87 -250 -78 -8 9 55 122 93 166 19 22 31 42 27 44 -5
3 -53 1 -108 -4 -73 -7 -103 -14 -112 -26 -16 -21 -50 -126 -58 -182 l-7 -44
-84 7 c-226 17 -300 118 -194 263 66 90 252 204 450 274 l105 38 193 0 192 1
0 -114z m-33 -301 c-21 -18 -70 -50 -108 -70 -87 -45 -338 -129 -443 -146
l-77 -13 6 -41 c9 -53 57 -157 97 -208 18 -22 59 -60 91 -84 l59 -43 -203 0
-204 0 -163 191 -162 191 0 61 0 61 28 -26 c112 -105 342 -120 645 -43 212 55
394 136 446 199 8 9 17 14 20 10 3 -3 -11 -21 -32 -39z m-479 -681 c6 -2 12
-7 12 -12 0 -5 -24 -7 -54 -4 -45 4 -57 1 -75 -17 -28 -28 -27 -45 5 -70 36
-28 94 -29 94 -1 0 11 -7 20 -15 20 -8 0 -15 5 -15 10 0 6 14 10 30 10 27 0
30 -3 30 -34 0 -38 -12 -46 -65 -46 -47 0 -81 15 -101 45 -14 21 -14 30 -4 55
7 17 13 30 14 30 0 0 19 7 41 14 36 13 62 13 103 0z m500 0 c6 -2 12 -7 12
-12 0 -4 -26 -6 -58 -4 -48 3 -60 1 -76 -17 -38 -42 1 -91 75 -91 22 0 29 5
29 20 0 14 -7 20 -21 20 -11 0 -17 5 -14 10 3 6 19 10 36 10 26 0 29 -3 29
-34 0 -39 -12 -46 -75 -46 -32 0 -51 7 -74 26 -83 70 16 156 137 118z m-1098
-69 c0 -60 -3 -75 -15 -75 -12 0 -15 15 -15 75 0 60 3 75 15 75 12 0 15 -15
15 -75z m105 45 l31 -30 29 30 c16 16 37 30 47 30 16 0 18 -9 18 -75 0 -60 -3
-75 -15 -75 -12 0 -15 13 -15 55 0 30 -3 55 -7 55 -4 0 -19 -11 -33 -25 l-26
-25 -24 25 c-13 14 -27 25 -32 25 -4 0 -8 -25 -8 -55 0 -42 -3 -55 -15 -55
-12 0 -15 15 -15 75 0 87 13 96 65 45z m292 -43 c26 -43 38 -74 31 -76 -6 -2
-20 8 -30 23 -27 37 -89 37 -108 1 -7 -14 -19 -25 -27 -25 -16 0 -16 5 1 33 7
12 25 43 40 70 15 26 32 47 39 47 7 0 31 -33 54 -73z m283 -2 c0 -60 -3 -75
-15 -75 -12 0 -15 15 -15 75 0 60 3 75 15 75 12 0 15 -15 15 -75z m132 20 l63
-55 3 55 c4 82 22 66 22 -20 0 -41 -4 -75 -10 -75 -5 0 -38 25 -72 56 l-63 56
-3 -56 c-2 -41 -7 -56 -17 -56 -12 0 -15 16 -15 75 0 59 3 75 14 75 8 0 43
-25 78 -55z"/>
<path d="M320 1505 c0 -23 4 -26 28 -23 19 2 27 9 27 23 0 14 -8 21 -27 23
-24 3 -28 0 -28 -23z"/>
<path d="M687 1512 c-35 -39 -11 -102 38 -102 37 0 56 11 66 37 9 25 -2 60
-25 75 -20 14 -63 8 -79 -10z"/>
<path d="M977 1518 c-28 -22 -32 -63 -8 -87 42 -42 111 -18 111 38 0 50 -62
80 -103 49z"/>
<path d="M1150 1505 c0 -22 4 -26 23 -23 14 2 22 10 22 23 0 13 -8 21 -22 23
-19 3 -23 -1 -23 -23z"/>
<path d="M476 184 c-9 -23 -8 -24 19 -24 23 0 24 2 15 20 -13 24 -26 26 -34 4z"/>
</g>
</svg>
